# xmcd CD database file
#
# Track frame offsets:
#	150
#	11380
#	24252
#	36522
#	52007
#	66372
#	78852
#	92722
#	105757
#	119082
#	132700
#	143087
#	155105
#	168160
#
# Disc length: 2378 seconds
#
# Revision: 3
# Processed by: cddbd v1.5.2PL0 Copyright (c) Steve Scherf et al.
# Submitted via: CDex 1.51
#
DISCID=b909480e
DTITLE=Various Artist - Country Goes Raffi
DYEAR=2001
DGENRE=Country
TTITLE0=Asleep At The Wheel - The Bowling Song
TTITLE1=Eric Heatherly - Down By The Bay
TTITLE2=Billy Gilman - Baby Beluga
TTITLE3=Alison Krauss - Blessed Be 
TTITLE4=Raffi - Blue White Planet
TTITLE5=Keith Urban - Apples And Bananas
TTITLE6=Marty Stuart -  Naturally
TTITLE7=The Wilkinsons - All I Really Need
TTITLE8=Lee Roy Parnell - Rise And Shine
TTITLE9=Rhonda Vincent - Bananaphone
TTITLE10=Lari White - Shake My Sillies Out
TTITLE11=Raul Malo - Thanks A Lot
TTITLE12=Elizabeth Cook - This Little Light Of Mine  
TTITLE13=Kathy Mattea - One Light One Sun
EXTD=YEAR: 2001
EXTT0=
EXTT1=
EXTT2=
EXTT3=
EXTT4=
EXTT5=
EXTT6=
EXTT7=
EXTT8=
EXTT9=
EXTT10=
EXTT11=
EXTT12=
EXTT13=
PLAYORDER=
